<mxfile host="app.diagrams.net" agent="Mozilla/5.0 (Windows NT 10.0; Win64; x64) AppleWebKit/537.36 (KHTML, like Gecko) Chrome/134.0.0.0 Safari/537.36 OPR/119.0.0.0" version="27.2.0">
  <diagram name="Page-1" id="y4DW9cnLOG7lKKh-ljwB">
    <mxGraphModel dx="2976" dy="1166" grid="1" gridSize="10" guides="1" tooltips="1" connect="1" arrows="1" fold="1" page="1" pageScale="1" pageWidth="850" pageHeight="1100" math="0" shadow="0">
      <root>
        <mxCell id="0" />
        <mxCell id="1" parent="0" />
        <mxCell id="6bXoH_OcyiLUwzYEBJwI-2" value="User" style="whiteSpace=wrap;html=1;align=center;opacity=60;fontColor=light-dark(#3375cc, #ededed);" vertex="1" parent="1">
          <mxGeometry x="130" y="155" width="110" height="55" as="geometry" />
        </mxCell>
        <mxCell id="6bXoH_OcyiLUwzYEBJwI-22" style="edgeStyle=orthogonalEdgeStyle;rounded=0;orthogonalLoop=1;jettySize=auto;html=1;entryX=0.5;entryY=1;entryDx=0;entryDy=0;endArrow=none;endFill=0;strokeWidth=1;curved=0;opacity=60;" edge="1" parent="1" source="6bXoH_OcyiLUwzYEBJwI-3" target="6bXoH_OcyiLUwzYEBJwI-2">
          <mxGeometry relative="1" as="geometry" />
        </mxCell>
        <mxCell id="6bXoH_OcyiLUwzYEBJwI-3" value="id" style="ellipse;whiteSpace=wrap;html=1;align=center;fontStyle=4;fontColor=light-dark(#3375cc, #ededed);opacity=60;" vertex="1" parent="1">
          <mxGeometry x="10" y="235" width="100" height="40" as="geometry" />
        </mxCell>
        <mxCell id="6bXoH_OcyiLUwzYEBJwI-10" value="emailVerificationCodeExpires" style="ellipse;align=center;verticalAlign=middle;textDirection=ltr;fontSize=12;html=1;labelBorderColor=none;fontColor=light-dark(#3375cc, #ededed);opacity=60;" vertex="1" parent="1">
          <mxGeometry x="10" y="535" width="100" height="40" as="geometry" />
        </mxCell>
        <mxCell id="6bXoH_OcyiLUwzYEBJwI-11" value="emailVerificationCode" style="ellipse;align=center;verticalAlign=middle;textDirection=ltr;fontSize=12;html=1;labelBorderColor=none;fontColor=light-dark(#3375cc, #ededed);opacity=60;" vertex="1" parent="1">
          <mxGeometry x="10" y="485" width="100" height="40" as="geometry" />
        </mxCell>
        <mxCell id="6bXoH_OcyiLUwzYEBJwI-12" value="isEmailVerified" style="ellipse;align=center;verticalAlign=middle;textDirection=ltr;fontSize=12;html=1;labelBorderColor=none;fontColor=light-dark(#3375cc, #ededed);opacity=60;" vertex="1" parent="1">
          <mxGeometry x="10" y="435" width="100" height="40" as="geometry" />
        </mxCell>
        <mxCell id="6bXoH_OcyiLUwzYEBJwI-13" value="password" style="ellipse;align=center;verticalAlign=middle;textDirection=ltr;fontSize=12;html=1;labelBorderColor=none;fontColor=light-dark(#3375cc, #ededed);opacity=60;" vertex="1" parent="1">
          <mxGeometry x="10" y="385" width="100" height="40" as="geometry" />
        </mxCell>
        <mxCell id="6bXoH_OcyiLUwzYEBJwI-14" value="username" style="ellipse;align=center;verticalAlign=middle;textDirection=ltr;fontSize=12;html=1;labelBorderColor=none;fontColor=light-dark(#3375cc, #ededed);opacity=60;" vertex="1" parent="1">
          <mxGeometry x="10" y="335" width="100" height="40" as="geometry" />
        </mxCell>
        <mxCell id="6bXoH_OcyiLUwzYEBJwI-15" value="email" style="ellipse;align=center;verticalAlign=middle;textDirection=ltr;fontSize=12;html=1;labelBorderColor=none;fontColor=light-dark(#3375cc, #ededed);opacity=60;" vertex="1" parent="1">
          <mxGeometry x="10" y="285" width="100" height="40" as="geometry" />
        </mxCell>
        <mxCell id="6bXoH_OcyiLUwzYEBJwI-16" value="passwordResetToken" style="ellipse;align=center;verticalAlign=middle;textDirection=ltr;fontSize=12;html=1;labelBorderColor=none;fontColor=light-dark(#3375cc, #ededed);opacity=60;" vertex="1" parent="1">
          <mxGeometry x="10" y="585" width="100" height="40" as="geometry" />
        </mxCell>
        <mxCell id="6bXoH_OcyiLUwzYEBJwI-17" value="passwordResetExpires" style="ellipse;align=center;verticalAlign=middle;textDirection=ltr;fontSize=12;html=1;labelBorderColor=none;fontColor=light-dark(#3375cc, #ededed);opacity=60;" vertex="1" parent="1">
          <mxGeometry x="10" y="635" width="100" height="40" as="geometry" />
        </mxCell>
        <mxCell id="6bXoH_OcyiLUwzYEBJwI-18" value="versionKey" style="ellipse;align=center;verticalAlign=middle;textDirection=ltr;fontSize=12;html=1;labelBorderColor=none;fontColor=light-dark(#3375cc, #ededed);opacity=60;" vertex="1" parent="1">
          <mxGeometry x="10" y="785" width="100" height="40" as="geometry" />
        </mxCell>
        <mxCell id="6bXoH_OcyiLUwzYEBJwI-19" value="createdAt" style="ellipse;align=center;verticalAlign=middle;textDirection=ltr;fontSize=12;html=1;labelBorderColor=none;fontColor=light-dark(#3375cc, #ededed);opacity=60;" vertex="1" parent="1">
          <mxGeometry x="10" y="685" width="100" height="40" as="geometry" />
        </mxCell>
        <mxCell id="6bXoH_OcyiLUwzYEBJwI-20" value="updatedAt" style="ellipse;align=center;verticalAlign=middle;textDirection=ltr;fontSize=12;html=1;labelBorderColor=none;fontColor=light-dark(#3375cc, #ededed);opacity=60;" vertex="1" parent="1">
          <mxGeometry x="10" y="735" width="100" height="40" as="geometry" />
        </mxCell>
        <mxCell id="6bXoH_OcyiLUwzYEBJwI-21" value="Gives UserID" style="shape=rhombus;perimeter=rhombusPerimeter;whiteSpace=wrap;html=1;align=center;fontColor=light-dark(#3375cf, #ededed);opacity=60;" vertex="1" parent="1">
          <mxGeometry x="340" y="130" width="105" height="105" as="geometry" />
        </mxCell>
        <mxCell id="6bXoH_OcyiLUwzYEBJwI-23" style="edgeStyle=orthogonalEdgeStyle;rounded=0;orthogonalLoop=1;jettySize=auto;html=1;endArrow=none;endFill=0;entryX=1;entryY=0.5;entryDx=0;entryDy=0;exitX=0.5;exitY=1;exitDx=0;exitDy=0;strokeWidth=1;curved=0;opacity=60;" edge="1" parent="1" source="6bXoH_OcyiLUwzYEBJwI-2" target="6bXoH_OcyiLUwzYEBJwI-15">
          <mxGeometry relative="1" as="geometry">
            <mxPoint x="210" y="305" as="sourcePoint" />
            <mxPoint x="210" y="305" as="targetPoint" />
          </mxGeometry>
        </mxCell>
        <mxCell id="6bXoH_OcyiLUwzYEBJwI-24" style="edgeStyle=orthogonalEdgeStyle;rounded=0;orthogonalLoop=1;jettySize=auto;html=1;endArrow=none;endFill=0;entryX=1;entryY=0.5;entryDx=0;entryDy=0;exitX=0.5;exitY=1;exitDx=0;exitDy=0;strokeWidth=1;curved=0;opacity=60;" edge="1" parent="1" source="6bXoH_OcyiLUwzYEBJwI-2" target="6bXoH_OcyiLUwzYEBJwI-14">
          <mxGeometry relative="1" as="geometry">
            <mxPoint x="365" y="325" as="sourcePoint" />
            <mxPoint x="290" y="425" as="targetPoint" />
          </mxGeometry>
        </mxCell>
        <mxCell id="6bXoH_OcyiLUwzYEBJwI-25" style="edgeStyle=orthogonalEdgeStyle;rounded=0;orthogonalLoop=1;jettySize=auto;html=1;endArrow=none;endFill=0;entryX=1;entryY=0.5;entryDx=0;entryDy=0;exitX=0.5;exitY=1;exitDx=0;exitDy=0;strokeWidth=1;curved=0;opacity=60;" edge="1" parent="1" source="6bXoH_OcyiLUwzYEBJwI-2" target="6bXoH_OcyiLUwzYEBJwI-13">
          <mxGeometry relative="1" as="geometry">
            <mxPoint x="305" y="385" as="sourcePoint" />
            <mxPoint x="230" y="485" as="targetPoint" />
          </mxGeometry>
        </mxCell>
        <mxCell id="6bXoH_OcyiLUwzYEBJwI-27" style="edgeStyle=orthogonalEdgeStyle;rounded=0;orthogonalLoop=1;jettySize=auto;html=1;endArrow=none;endFill=0;entryX=1;entryY=0.5;entryDx=0;entryDy=0;exitX=0.5;exitY=1;exitDx=0;exitDy=0;strokeWidth=1;curved=0;opacity=60;" edge="1" parent="1" source="6bXoH_OcyiLUwzYEBJwI-2" target="6bXoH_OcyiLUwzYEBJwI-12">
          <mxGeometry relative="1" as="geometry">
            <mxPoint x="395" y="445" as="sourcePoint" />
            <mxPoint x="320" y="545" as="targetPoint" />
          </mxGeometry>
        </mxCell>
        <mxCell id="6bXoH_OcyiLUwzYEBJwI-28" style="edgeStyle=orthogonalEdgeStyle;rounded=0;orthogonalLoop=1;jettySize=auto;html=1;endArrow=none;endFill=0;entryX=1;entryY=0.5;entryDx=0;entryDy=0;exitX=0.5;exitY=1;exitDx=0;exitDy=0;strokeWidth=1;curved=0;opacity=60;" edge="1" parent="1" source="6bXoH_OcyiLUwzYEBJwI-2" target="6bXoH_OcyiLUwzYEBJwI-10">
          <mxGeometry relative="1" as="geometry">
            <mxPoint x="485" y="505" as="sourcePoint" />
            <mxPoint x="410" y="605" as="targetPoint" />
          </mxGeometry>
        </mxCell>
        <mxCell id="6bXoH_OcyiLUwzYEBJwI-29" style="edgeStyle=orthogonalEdgeStyle;rounded=0;orthogonalLoop=1;jettySize=auto;html=1;endArrow=none;endFill=0;entryX=1;entryY=0.5;entryDx=0;entryDy=0;exitX=0.5;exitY=1;exitDx=0;exitDy=0;strokeWidth=1;curved=0;opacity=60;" edge="1" parent="1" source="6bXoH_OcyiLUwzYEBJwI-2" target="6bXoH_OcyiLUwzYEBJwI-16">
          <mxGeometry relative="1" as="geometry">
            <mxPoint x="535" y="545" as="sourcePoint" />
            <mxPoint x="460" y="645" as="targetPoint" />
          </mxGeometry>
        </mxCell>
        <mxCell id="6bXoH_OcyiLUwzYEBJwI-30" style="edgeStyle=orthogonalEdgeStyle;rounded=0;orthogonalLoop=1;jettySize=auto;html=1;endArrow=none;endFill=0;entryX=1.01;entryY=0.35;entryDx=0;entryDy=0;exitX=0.5;exitY=1;exitDx=0;exitDy=0;entryPerimeter=0;strokeWidth=1;curved=0;opacity=60;" edge="1" parent="1" source="6bXoH_OcyiLUwzYEBJwI-2" target="6bXoH_OcyiLUwzYEBJwI-19">
          <mxGeometry relative="1" as="geometry">
            <mxPoint x="575" y="555" as="sourcePoint" />
            <mxPoint x="500" y="655" as="targetPoint" />
          </mxGeometry>
        </mxCell>
        <mxCell id="6bXoH_OcyiLUwzYEBJwI-31" style="edgeStyle=orthogonalEdgeStyle;rounded=0;orthogonalLoop=1;jettySize=auto;html=1;endArrow=none;endFill=0;entryX=1;entryY=0.5;entryDx=0;entryDy=0;exitX=0.5;exitY=1;exitDx=0;exitDy=0;strokeWidth=1;curved=0;opacity=60;" edge="1" parent="1" source="6bXoH_OcyiLUwzYEBJwI-2" target="6bXoH_OcyiLUwzYEBJwI-17">
          <mxGeometry relative="1" as="geometry">
            <mxPoint x="575" y="565" as="sourcePoint" />
            <mxPoint x="500" y="665" as="targetPoint" />
          </mxGeometry>
        </mxCell>
        <mxCell id="6bXoH_OcyiLUwzYEBJwI-32" style="edgeStyle=orthogonalEdgeStyle;rounded=0;orthogonalLoop=1;jettySize=auto;html=1;endArrow=none;endFill=0;entryX=1;entryY=0.5;entryDx=0;entryDy=0;exitX=0.5;exitY=1;exitDx=0;exitDy=0;strokeWidth=1;curved=0;opacity=60;" edge="1" parent="1" source="6bXoH_OcyiLUwzYEBJwI-2" target="6bXoH_OcyiLUwzYEBJwI-11">
          <mxGeometry relative="1" as="geometry">
            <mxPoint x="405" y="515" as="sourcePoint" />
            <mxPoint x="330" y="615" as="targetPoint" />
          </mxGeometry>
        </mxCell>
        <mxCell id="6bXoH_OcyiLUwzYEBJwI-33" style="edgeStyle=orthogonalEdgeStyle;rounded=0;orthogonalLoop=1;jettySize=auto;html=1;endArrow=none;endFill=0;entryX=1;entryY=0.5;entryDx=0;entryDy=0;exitX=0.5;exitY=1;exitDx=0;exitDy=0;strokeWidth=1;curved=0;opacity=60;" edge="1" parent="1" source="6bXoH_OcyiLUwzYEBJwI-2" target="6bXoH_OcyiLUwzYEBJwI-20">
          <mxGeometry relative="1" as="geometry">
            <mxPoint x="525" y="555" as="sourcePoint" />
            <mxPoint x="450" y="655" as="targetPoint" />
          </mxGeometry>
        </mxCell>
        <mxCell id="6bXoH_OcyiLUwzYEBJwI-34" style="edgeStyle=orthogonalEdgeStyle;rounded=0;orthogonalLoop=1;jettySize=auto;html=1;endArrow=none;endFill=0;entryX=1;entryY=0.5;entryDx=0;entryDy=0;exitX=0.5;exitY=1;exitDx=0;exitDy=0;strokeWidth=1;curved=0;opacity=60;" edge="1" parent="1" source="6bXoH_OcyiLUwzYEBJwI-2" target="6bXoH_OcyiLUwzYEBJwI-18">
          <mxGeometry relative="1" as="geometry">
            <mxPoint x="485" y="645" as="sourcePoint" />
            <mxPoint x="410" y="745" as="targetPoint" />
          </mxGeometry>
        </mxCell>
        <mxCell id="6bXoH_OcyiLUwzYEBJwI-36" value="Buddy" style="shape=ext;margin=3;double=1;whiteSpace=wrap;html=1;align=center;opacity=60;fontColor=light-dark(#3375d6, #ededed);" vertex="1" parent="1">
          <mxGeometry x="550" y="155" width="110" height="55" as="geometry" />
        </mxCell>
        <mxCell id="6bXoH_OcyiLUwzYEBJwI-38" value="" style="endArrow=none;html=1;rounded=0;exitX=1;exitY=0.5;exitDx=0;exitDy=0;entryX=0;entryY=0.5;entryDx=0;entryDy=0;" edge="1" parent="1" source="6bXoH_OcyiLUwzYEBJwI-2" target="6bXoH_OcyiLUwzYEBJwI-21">
          <mxGeometry relative="1" as="geometry">
            <mxPoint x="350" y="330" as="sourcePoint" />
            <mxPoint x="510" y="330" as="targetPoint" />
          </mxGeometry>
        </mxCell>
        <mxCell id="6bXoH_OcyiLUwzYEBJwI-39" value="1" style="resizable=0;html=1;whiteSpace=wrap;align=right;verticalAlign=bottom;" connectable="0" vertex="1" parent="6bXoH_OcyiLUwzYEBJwI-38">
          <mxGeometry x="1" relative="1" as="geometry" />
        </mxCell>
        <mxCell id="6bXoH_OcyiLUwzYEBJwI-40" value="" style="shape=link;html=1;rounded=0;exitX=0;exitY=0.5;exitDx=0;exitDy=0;entryX=1;entryY=0.5;entryDx=0;entryDy=0;" edge="1" parent="1" source="6bXoH_OcyiLUwzYEBJwI-36" target="6bXoH_OcyiLUwzYEBJwI-21">
          <mxGeometry relative="1" as="geometry">
            <mxPoint x="350" y="330" as="sourcePoint" />
            <mxPoint x="450" y="180" as="targetPoint" />
          </mxGeometry>
        </mxCell>
        <mxCell id="6bXoH_OcyiLUwzYEBJwI-41" value="N" style="resizable=0;html=1;whiteSpace=wrap;align=right;verticalAlign=bottom;" connectable="0" vertex="1" parent="6bXoH_OcyiLUwzYEBJwI-40">
          <mxGeometry x="1" relative="1" as="geometry">
            <mxPoint x="15" as="offset" />
          </mxGeometry>
        </mxCell>
        <mxCell id="6bXoH_OcyiLUwzYEBJwI-46" style="edgeStyle=orthogonalEdgeStyle;rounded=0;orthogonalLoop=1;jettySize=auto;html=1;entryX=0.5;entryY=1;entryDx=0;entryDy=0;endArrow=none;endFill=0;opacity=60;" edge="1" parent="1" source="6bXoH_OcyiLUwzYEBJwI-42" target="6bXoH_OcyiLUwzYEBJwI-36">
          <mxGeometry relative="1" as="geometry" />
        </mxCell>
        <mxCell id="6bXoH_OcyiLUwzYEBJwI-42" value="id" style="ellipse;whiteSpace=wrap;html=1;align=center;fontStyle=4;fontColor=light-dark(#3375cc, #ededed);opacity=60;" vertex="1" parent="1">
          <mxGeometry x="680" y="235" width="100" height="40" as="geometry" />
        </mxCell>
        <mxCell id="6bXoH_OcyiLUwzYEBJwI-47" style="edgeStyle=orthogonalEdgeStyle;rounded=0;orthogonalLoop=1;jettySize=auto;html=1;exitX=0;exitY=0.5;exitDx=0;exitDy=0;entryX=0.5;entryY=1;entryDx=0;entryDy=0;endArrow=none;endFill=0;opacity=60;" edge="1" parent="1" source="6bXoH_OcyiLUwzYEBJwI-44" target="6bXoH_OcyiLUwzYEBJwI-36">
          <mxGeometry relative="1" as="geometry">
            <mxPoint x="530" y="305" as="targetPoint" />
          </mxGeometry>
        </mxCell>
        <mxCell id="6bXoH_OcyiLUwzYEBJwI-44" value="userID" style="ellipse;align=center;verticalAlign=middle;textDirection=ltr;fontSize=12;html=1;labelBorderColor=none;fontColor=light-dark(#3375cc, #ededed);opacity=60;" vertex="1" parent="1">
          <mxGeometry x="680" y="285" width="100" height="40" as="geometry" />
        </mxCell>
        <mxCell id="6bXoH_OcyiLUwzYEBJwI-50" style="edgeStyle=orthogonalEdgeStyle;rounded=0;orthogonalLoop=1;jettySize=auto;html=1;entryX=0.5;entryY=1;entryDx=0;entryDy=0;endArrow=none;endFill=0;opacity=60;" edge="1" parent="1" source="6bXoH_OcyiLUwzYEBJwI-45" target="6bXoH_OcyiLUwzYEBJwI-36">
          <mxGeometry relative="1" as="geometry" />
        </mxCell>
        <mxCell id="6bXoH_OcyiLUwzYEBJwI-45" value="experience" style="ellipse;align=center;verticalAlign=middle;textDirection=ltr;fontSize=12;html=1;labelBorderColor=none;fontColor=light-dark(#3375cc, #ededed);opacity=60;" vertex="1" parent="1">
          <mxGeometry x="680" y="335" width="100" height="40" as="geometry" />
        </mxCell>
      </root>
    </mxGraphModel>
  </diagram>
</mxfile>
